<?xml version="1.0" standalone="no"?>
<!DOCTYPE svg PUBLIC "-//W3C//DTD SVG 20010904//EN"
 "http://www.w3.org/TR/2001/REC-SVG-20010904/DTD/svg10.dtd">
<svg version="1.0" xmlns="http://www.w3.org/2000/svg"
 width="300.000000pt" height="75.000000pt" viewBox="0 0 300.000000 75.000000"
 preserveAspectRatio="xMidYMid meet">
<metadata>
Created by potrace 1.10, written by Peter Selinger 2001-2011
</metadata>
<g transform="translate(0.000000,75.000000) scale(0.100000,-0.100000)"
fill="#000000" stroke="none">
<path d="M1952 663 c-45 -47 -85 -97 -88 -112 -5 -21 -3 -20 13 9 11 21 24 34
34 32 9 -1 37 19 63 44 45 46 57 62 34 48 -7 -5 -8 -3 -4 5 5 7 19 16 33 22
19 7 30 5 51 -12 15 -11 28 -26 28 -32 1 -7 2 -17 3 -24 0 -6 8 -18 16 -27 13
-13 11 -17 -17 -37 -34 -24 -54 -46 -58 -64 -1 -5 -8 -14 -16 -18 -8 -4 -14
-15 -14 -24 0 -9 -8 -25 -17 -36 -17 -19 -17 -20 5 -8 12 6 22 18 22 26 0 8 7
15 15 15 8 0 19 16 24 38 8 27 21 44 50 61 22 14 37 30 34 35 -3 6 6 -2 21
-19 14 -16 25 -35 26 -40 0 -15 70 -19 70 -5 0 6 -4 8 -10 5 -5 -3 -10 -2 -10
3 0 6 -13 15 -30 21 -16 5 -30 16 -30 24 0 14 -26 32 -41 29 -3 -1 -11 17 -18
38 -12 40 -64 91 -92 89 -8 0 -51 -39 -97 -86z"/>
<path d="M1348 583 c-22 -5 -23 -19 -3 -27 8 -3 14 0 12 7 -1 6 8 13 21 15 12
2 22 -2 22 -8 0 -6 5 -8 11 -4 8 4 7 9 -2 15 -15 9 -32 10 -61 2z"/>
<path d="M1680 580 c-39 -8 -38 -11 3 -14 15 -1 33 4 39 11 11 14 10 14 -42 3z"/>
<path d="M1690 515 c-35 -35 -60 -68 -56 -72 5 -5 28 15 53 42 24 28 49 49 54
47 11 -3 23 22 17 38 -2 6 -32 -19 -68 -55z"/>
<path d="M1886 545 c-8 -19 -20 -35 -25 -35 -6 0 -11 -8 -12 -17 0 -15 -2 -15
-9 2 -9 20 -9 20 -11 0 -1 -11 -1 -38 0 -60 1 -27 -1 -36 -8 -26 -7 11 -9 11
-14 0 -3 -9 -6 -7 -6 6 -1 17 -3 17 -11 5 -15 -22 -12 -34 10 -48 18 -11 22
-9 32 13 6 13 14 22 18 20 4 -3 14 3 21 13 13 15 12 16 -4 3 -17 -13 -18 -12
-12 15 3 16 7 35 9 42 1 7 10 21 18 32 27 31 39 58 28 65 -5 3 -16 -10 -24
-30z"/>
<path d="M2323 574 c5 -5 12 -9 15 -10 25 -3 92 -17 120 -26 22 -7 32 -15 28
-24 -3 -8 -1 -14 4 -14 6 0 10 4 10 9 0 6 12 6 31 -1 20 -7 28 -15 25 -25 -3
-8 -2 -12 3 -8 5 3 12 -1 15 -7 2 -7 4 -3 2 9 -1 12 -5 25 -8 28 -10 11 -113
47 -153 55 -22 4 -53 11 -70 15 -17 5 -27 4 -22 -1z"/>
<path d="M1255 545 c-23 -14 -33 -25 -23 -25 9 0 19 4 23 9 3 5 19 12 35 16
17 4 30 11 30 16 0 16 -23 10 -65 -16z"/>
<path d="M1422 558 c-7 -7 -12 -18 -12 -26 0 -10 -4 -12 -12 -4 -10 8 -13 2
-14 -26 0 -21 1 -31 4 -24 2 6 8 10 13 6 5 -3 9 -2 8 3 -1 4 3 19 9 33 9 22
11 22 12 5 0 -16 2 -17 9 -5 6 8 8 17 6 20 -2 4 9 6 24 5 21 -1 28 2 24 12 -4
10 -9 11 -16 4 -6 -6 -16 -7 -27 -1 -11 6 -21 5 -28 -2z"/>
<path d="M2040 550 c-8 -5 -10 -10 -5 -10 6 -1 -1 -6 -14 -11 -13 -5 -21 -12
-18 -15 7 -7 67 27 67 38 0 11 -12 10 -30 -2z"/>
<path d="M2298 529 c-9 -5 -15 -16 -12 -23 6 -15 -7 -15 -39 -1 -11 4 -23 3
-30 -4 -6 -6 -7 -11 -1 -11 5 0 3 -4 -5 -9 -7 -5 -11 -14 -7 -20 5 -7 15 -6
32 5 13 9 24 12 24 8 0 -5 5 -2 10 6 8 13 10 12 11 -5 1 -11 1 -26 0 -32 -1
-7 5 -13 14 -13 9 0 15 9 15 26 0 14 -4 23 -10 19 -17 -10 -11 7 6 20 22 16
15 47 -8 34z"/>
<path d="M1275 470 c-27 -35 -68 -84 -91 -109 -57 -65 -86 -109 -79 -121 11
-18 25 -10 22 13 -1 17 3 22 21 21 12 -1 22 4 22 12 0 8 -5 14 -10 14 -6 0 -5
8 2 20 18 28 26 25 21 -7 -3 -20 -2 -24 5 -14 7 10 12 7 21 -15 l11 -29 -4 27
c-2 16 3 33 10 39 8 6 14 16 14 21 0 6 -7 4 -17 -3 -15 -13 -15 -12 -4 9 6 12
16 22 22 22 5 0 14 12 20 27 8 22 12 24 19 13 8 -12 10 -12 10 3 0 10 4 16 9
13 5 -4 11 -1 13 4 2 6 16 -13 30 -42 23 -44 28 -48 28 -27 0 30 7 39 25 33
10 -4 8 -14 -8 -39 -20 -32 -56 -51 -42 -22 4 6 -1 3 -9 -7 -9 -11 -16 -16
-17 -10 0 5 -2 18 -3 30 -2 17 2 20 18 16 18 -5 18 -4 5 10 -13 15 -16 15 -31
1 -10 -9 -16 -19 -13 -23 2 -4 -8 -13 -23 -21 -35 -18 -42 -28 -41 -59 1 -22
2 -20 10 8 7 23 15 32 25 28 7 -3 14 -1 14 3 0 5 7 11 15 15 11 4 15 -1 15
-19 0 -18 -4 -23 -15 -18 -9 3 -15 1 -13 -5 2 -5 -10 -22 -27 -36 -16 -14 -24
-26 -17 -26 15 0 33 13 78 57 18 18 41 33 52 33 10 0 24 10 31 23 7 12 39 42
71 67 32 25 59 50 59 56 1 7 10 14 22 17 12 3 18 10 14 16 -14 23 -55 6 -59
-25 -2 -10 -11 -20 -22 -22 -16 -3 -16 -1 -4 7 12 8 12 13 2 23 -9 9 -12 9
-13 -5 -2 -30 -4 -35 -12 -43 -11 -11 -57 -16 -57 -6 0 4 10 19 23 32 12 14
21 28 20 32 -2 4 6 10 17 13 11 4 20 11 20 16 0 5 4 9 10 9 5 0 7 -8 4 -17 -5
-15 -4 -16 5 -3 17 24 13 30 -19 28 -20 -2 -29 -7 -26 -15 5 -12 -6 -17 -26
-14 -13 2 -9 -17 5 -22 7 -3 5 -6 -5 -6 -10 -1 -18 -9 -18 -18 0 -14 -2 -15
-9 -4 -6 9 -11 10 -15 2 -4 -6 -2 -11 4 -11 6 0 8 -5 5 -11 -4 -5 -19 -9 -33
-7 -25 3 -27 7 -32 58 l-5 54 -50 -64z"/>
<path d="M2416 514 c-3 -9 -2 -12 4 -9 6 4 13 -7 16 -24 5 -22 15 -33 37 -40
38 -14 37 -14 37 3 0 9 -8 12 -26 8 -20 -4 -25 -2 -19 8 5 8 4 11 -2 7 -10 -6
-29 37 -25 56 4 14 -16 7 -22 -9z"/>
<path d="M1760 511 c0 -5 4 -12 10 -16 11 -7 -8 -55 -23 -55 -5 0 -16 -8 -24
-17 -13 -16 -14 -16 -8 7 4 18 3 21 -3 10 -5 -8 -13 -37 -16 -65 -5 -34 -15
-56 -29 -67 -21 -16 -21 -19 -7 -44 20 -37 36 -40 54 -12 11 17 13 32 7 53 -9
28 -9 28 -11 -15 -1 -25 -4 -40 -6 -33 -3 7 -12 9 -20 6 -9 -3 -14 2 -14 16 0
12 6 21 15 21 8 0 15 9 15 20 0 11 4 28 9 38 5 9 14 29 20 45 6 15 14 27 18
26 36 -6 56 49 29 77 -9 8 -16 11 -16 5z"/>
<path d="M1149 505 c-1 -5 -1 -13 0 -17 0 -4 -8 -5 -19 -3 -12 2 -18 0 -15 -5
3 -5 1 -11 -5 -15 -18 -11 -12 -35 7 -28 11 4 13 8 5 11 -7 2 -10 8 -6 13 10
16 24 10 24 -11 0 -11 -4 -20 -10 -20 -5 0 -7 -7 -4 -15 8 -19 -10 -19 -30 0
-9 9 -17 11 -21 5 -3 -5 -1 -10 4 -10 6 0 11 -10 11 -22 0 -23 0 -23 -13 1 -6
14 -18 26 -26 29 -10 3 -12 -4 -6 -36 7 -42 -6 -85 -19 -63 -11 17 -26 13 -26
-6 0 -15 2 -16 10 -3 5 8 10 10 10 4 0 -6 -7 -17 -15 -24 -8 -7 -15 -17 -15
-22 0 -5 -14 -23 -30 -40 -21 -21 -29 -36 -25 -49 4 -11 3 -19 -2 -18 -15 4
-43 -13 -43 -26 0 -30 40 -10 54 26 8 20 40 66 70 102 30 35 52 68 48 72 -4 5
-2 5 5 1 6 -3 14 -2 18 4 3 5 -1 10 -9 10 -10 0 -16 9 -16 23 1 20 2 20 11 5
12 -22 29 -23 29 -2 0 8 4 13 9 10 15 -9 54 42 48 63 -3 11 0 22 6 24 7 2 7 9
-1 23 -6 10 -12 15 -13 9z"/>
<path d="M1183 495 c-7 -20 0 -27 20 -19 9 3 13 12 10 20 -7 19 -22 18 -30 -1z"/>
<path d="M2151 493 c-8 -14 -11 -15 -11 -3 0 12 -3 11 -11 -3 -6 -9 -14 -15
-19 -12 -5 3 -8 -4 -7 -15 2 -23 15 -26 23 -5 8 20 31 19 43 -2 6 -10 11 -12
11 -5 0 19 -4 27 -13 24 -5 -1 -6 7 -2 18 8 25 0 26 -14 3z"/>
<path d="M2326 501 c-3 -5 1 -11 9 -15 8 -3 15 -11 14 -18 0 -10 -2 -10 -6 0
-8 20 -22 14 -16 -8 6 -22 18 -26 28 -9 4 6 13 8 21 5 24 -9 15 9 -15 32 -17
12 -32 18 -35 13z"/>
<path d="M2409 473 c-6 -34 -5 -54 2 -59 5 -3 9 4 9 15 0 10 3 26 6 35 3 9 1
16 -5 16 -6 0 -12 -3 -12 -7z"/>
<path d="M2590 469 c0 -5 4 -8 9 -5 5 4 17 3 26 0 12 -5 13 -9 4 -14 -7 -5 -9
-18 -5 -34 7 -27 26 -27 26 0 0 8 -4 12 -10 9 -5 -3 -10 -2 -10 3 0 18 12 19
50 6 81 -28 320 -54 320 -35 0 9 -86 18 -122 12 -18 -2 -197 38 -232 53 -45
19 -56 20 -56 5z"/>
<path d="M1594 448 c-19 -23 -102 -92 -139 -116 -71 -45 -80 -52 -62 -52 10 0
15 -4 12 -10 -3 -5 -1 -10 4 -10 6 0 11 9 11 20 0 11 5 20 11 20 5 0 7 -6 4
-12 -4 -7 5 0 18 16 16 18 31 27 41 23 9 -4 15 -3 13 1 -3 11 29 52 36 45 7
-6 37 24 65 65 20 31 9 39 -14 10z"/>
<path d="M2357 436 c-4 -10 -12 -14 -19 -10 -10 5 -10 4 -2 -5 15 -16 46 -11
52 8 3 8 0 11 -6 7 -6 -3 -12 -1 -14 6 -3 7 -7 5 -11 -6z"/>
<path d="M1007 433 c-4 -6 -17 -10 -28 -8 -12 2 -28 -2 -36 -10 -16 -17 -59
-20 -68 -5 -3 6 -11 10 -17 10 -6 0 -8 -3 -5 -7 4 -3 2 -12 -4 -19 -12 -15 -4
-34 14 -33 9 0 8 2 -1 6 -13 5 -7 23 9 23 10 0 12 -33 2 -43 -3 -4 -16 0 -29
8 -19 12 -23 12 -28 0 -3 -8 -14 -12 -24 -10 -17 3 -20 -2 -19 -30 1 -19 -5
-45 -13 -59 -9 -19 -10 -29 -2 -38 7 -9 7 -19 2 -28 -15 -24 -11 -36 5 -14 14
19 14 19 15 0 0 -24 13 -13 17 14 2 12 -2 19 -9 17 -7 -1 -14 8 -16 21 -2 12
1 22 7 22 6 0 11 -6 12 -12 0 -7 5 -3 11 10 6 12 14 22 19 22 4 0 5 18 2 40
-6 40 9 56 21 24 8 -22 8 -26 -4 -19 -5 3 -10 -2 -10 -12 0 -13 7 -10 30 15
17 18 30 38 30 43 0 6 5 7 10 4 6 -4 7 -11 4 -17 -4 -7 -2 -8 4 -4 9 5 9 13 2
26 -8 16 -5 19 23 25 17 4 38 12 45 17 19 16 14 -2 -5 -21 -10 -9 -29 -29 -42
-44 l-24 -27 26 13 c15 6 27 16 27 20 0 10 27 38 35 37 17 -4 27 9 23 30 -2
16 -6 21 -11 13z"/>
<path d="M2435 421 c3 -5 1 -12 -5 -16 -7 -4 -7 -12 0 -26 16 -28 31 -24 20 6
-6 17 -6 25 1 25 6 0 7 5 4 10 -3 6 -11 10 -16 10 -6 0 -8 -4 -4 -9z"/>
<path d="M2578 421 c10 -6 9 -10 -7 -14 -12 -3 -21 -13 -21 -24 1 -17 1 -17
11 0 5 9 17 17 24 17 8 0 15 7 15 15 0 8 -8 15 -17 15 -14 0 -15 -2 -5 -9z"/>
<path d="M2133 402 c-12 -12 -19 -13 -34 -4 -13 9 -19 9 -19 1 0 -6 9 -13 19
-16 12 -3 17 -11 14 -19 -9 -24 13 -15 27 11 14 27 33 35 24 10 -7 -18 9 -19
39 -4 16 9 22 9 25 0 2 -6 8 -11 13 -11 5 0 4 9 -3 19 -12 19 -36 18 -50 -3
-5 -6 -8 -2 -8 10 0 24 -25 27 -47 6z"/>
<path d="M2493 408 c26 -9 38 -28 17 -28 -5 0 -10 -4 -10 -10 0 -18 28 -10 33
9 5 19 -28 42 -56 40 -7 0 0 -5 16 -11z"/>
<path d="M2007 403 c-4 -3 -7 -15 -7 -25 0 -23 35 -24 44 -2 10 26 -4 31 -21
9 -15 -20 -15 -20 -10 3 5 23 4 26 -6 15z"/>
<path d="M2745 391 c-3 -6 -3 -11 1 -11 4 0 0 -6 -11 -13 -10 -8 -15 -19 -11
-25 12 -20 23 -13 30 20 6 33 3 47 -9 29z"/>
<path d="M1736 373 c-4 -11 -2 -14 9 -9 18 6 19 2 5 -25 -6 -10 -7 -19 -3 -19
4 0 13 11 19 24 9 19 8 25 -7 34 -13 9 -19 8 -23 -5z"/>
<path d="M2846 383 c-10 -10 -7 -25 4 -18 6 3 10 -1 10 -9 0 -17 12 -19 48
-10 12 4 22 14 21 23 0 10 -2 11 -6 3 -2 -6 -9 -10 -14 -6 -5 3 -9 0 -9 -5 0
-6 -7 -11 -15 -11 -8 0 -15 6 -15 14 0 17 -14 28 -24 19z"/>
<path d="M2279 378 c-1 -2 -3 -13 -4 -26 -2 -16 2 -21 11 -18 8 3 14 -1 14 -9
0 -8 7 -15 15 -15 8 0 15 5 15 10 0 6 -5 10 -11 10 -6 0 -8 7 -5 17 4 9 1 20
-6 25 -13 8 -27 10 -29 6z"/>
<path d="M2330 355 c0 -14 4 -25 9 -25 4 0 7 -11 5 -26 -2 -19 1 -23 10 -15 7
6 16 8 20 4 4 -4 11 -1 16 7 8 13 10 12 10 -2 0 -9 -4 -20 -10 -23 -5 -3 -10
-13 -10 -21 0 -8 5 -14 10 -14 6 0 9 3 9 8 -4 21 3 23 23 6 20 -18 21 -18 15
-1 -4 10 -7 23 -7 28 0 6 -4 7 -10 4 -5 -3 -10 -2 -10 3 0 6 7 12 15 16 10 4
15 -1 15 -14 0 -11 3 -19 8 -19 21 4 42 -3 56 -17 14 -13 16 -14 16 0 0 8 -5
18 -11 21 -14 9 -6 30 12 30 7 0 15 9 17 20 2 15 1 17 -6 6 -7 -10 -14 -11
-31 -2 -12 7 -18 17 -15 23 4 7 3 8 -4 4 -7 -4 -12 -14 -12 -22 0 -8 -4 -12
-10 -9 -5 3 -10 2 -10 -2 0 -14 -44 -13 -52 0 -6 9 -8 9 -8 0 0 -7 -9 -13 -21
-13 -12 0 -18 4 -13 11 3 6 0 15 -7 20 -11 7 -11 9 3 9 9 0 20 6 24 13 4 6 4
9 -1 5 -4 -4 -16 -3 -26 3 -16 8 -19 6 -19 -16z"/>
<path d="M1634 353 c-10 -24 -12 -63 -2 -57 4 3 13 14 19 26 8 15 8 19 0 14
-6 -4 -11 -3 -11 3 0 19 19 21 29 4 6 -10 11 -13 11 -7 0 11 -20 34 -31 34 -4
0 -10 -8 -15 -17z"/>
<path d="M2046 354 c-8 -22 1 -34 20 -27 9 3 19 1 23 -5 4 -7 12 -8 21 -2 10
7 11 10 3 10 -7 0 -13 8 -13 18 0 13 -2 14 -9 3 -5 -7 -14 -10 -21 -6 -9 6 -9
9 1 16 11 7 11 9 -2 9 -9 0 -20 -7 -23 -16z"/>
<path d="M963 324 c-13 -20 -23 -41 -23 -47 0 -7 -8 -24 -17 -37 -16 -25 -16
-25 3 -7 12 9 26 17 32 17 7 0 12 7 12 16 0 9 -5 12 -11 8 -7 -4 -10 -1 -7 7
3 8 11 13 17 11 7 -1 10 1 7 6 -3 5 1 18 9 28 16 21 19 34 8 34 -5 -1 -18 -17
-30 -36z"/>
<path d="M2191 339 c12 -12 27 -18 35 -15 9 3 14 -1 14 -13 0 -18 18 -31 43
-31 6 0 1 7 -11 16 -12 8 -22 22 -22 30 0 8 -9 14 -20 14 -11 0 -20 4 -20 8 0
4 -9 8 -19 9 -19 2 -19 1 0 -18z"/>
<path d="M2550 335 c0 -16 6 -25 15 -25 8 0 15 -7 15 -16 0 -14 1 -14 16 0 21
22 27 20 22 -7 -3 -15 0 -24 8 -24 7 0 11 4 8 9 -3 4 2 8 10 8 20 0 20 -9 0
-35 -11 -14 -18 -16 -21 -7 -3 6 -9 12 -14 12 -6 0 -8 -4 -4 -9 3 -5 1 -12 -5
-16 -6 -4 -10 5 -10 22 -1 23 -2 25 -10 11 -6 -9 -7 -23 -4 -32 7 -18 34 -22
34 -6 0 6 12 2 27 -7 15 -10 24 -12 20 -5 -8 12 9 17 43 12 8 -1 12 2 7 6 -4
4 1 16 10 27 10 11 13 17 6 14 -6 -4 -14 -1 -16 5 -3 8 -6 6 -6 -4 -1 -17 -38
-44 -48 -34 -8 8 7 27 17 21 5 -3 11 -1 15 5 3 5 0 10 -7 10 -8 1 -6 6 6 15
11 8 16 18 12 22 -4 4 -12 0 -17 -10 -9 -16 -12 -15 -33 8 -24 25 -56 34 -56
14 0 -5 -5 -7 -10 -4 -6 4 -8 15 -5 26 4 13 2 19 -9 19 -10 0 -16 -9 -16 -25z"/>
<path d="M1808 338 c9 -9 9 -15 0 -25 -9 -11 -8 -13 2 -11 10 2 14 -7 14 -29
0 -34 9 -42 22 -21 4 6 2 14 -4 16 -7 2 -9 8 -6 14 20 32 6 68 -25 68 -12 0
-12 -3 -3 -12z"/>
<path d="M1954 321 c-4 -17 -10 -31 -15 -31 -5 0 -9 -6 -9 -13 0 -7 -9 -18
-20 -25 -24 -14 -26 -7 -5 15 20 19 10 36 -14 23 -16 -8 -17 -14 -8 -50 9 -31
13 -36 18 -22 4 10 23 31 43 46 30 23 35 30 25 42 -10 12 -9 13 6 8 13 -5 16
-2 14 11 -7 32 -29 29 -35 -4z"/>
<path d="M725 329 c-4 -6 -13 -8 -20 -5 -18 6 -39 -20 -31 -39 3 -8 2 -14 -2
-12 -4 1 -14 -5 -23 -13 -11 -10 -13 -18 -5 -25 7 -8 21 1 48 32 21 24 38 49
38 54 0 6 5 7 10 4 6 -3 10 -1 10 4 0 14 -17 14 -25 0z"/>
<path d="M1543 323 c4 -6 2 -13 -5 -15 -9 -3 -8 -9 5 -22 9 -10 15 -21 13 -25
-3 -4 1 -8 9 -8 8 0 15 5 15 11 0 5 15 -5 33 -22 18 -18 36 -29 40 -26 3 4 -4
15 -16 25 -17 15 -19 20 -9 27 10 7 8 11 -9 15 -19 5 -20 8 -9 21 10 13 10 16
-4 16 -9 0 -19 -7 -22 -15 -4 -8 -10 -15 -16 -15 -5 0 -7 4 -4 9 3 5 -2 15
-11 22 -9 8 -14 9 -10 2z"/>
<path d="M904 294 c3 -8 2 -12 -4 -9 -6 3 -10 0 -10 -8 0 -8 -7 -17 -15 -21
-8 -3 -15 -11 -15 -18 0 -9 3 -8 10 2 6 9 10 11 10 3 0 -7 7 -10 16 -6 8 3 13
12 10 19 -3 8 1 14 8 14 9 0 12 7 9 20 -3 11 -10 20 -15 20 -6 0 -7 -7 -4 -16z"/>
<path d="M2000 300 c-10 -6 -11 -10 -2 -10 6 0 11 -3 11 -7 -4 -22 3 -32 16
-27 10 4 15 0 16 -12 0 -14 2 -15 6 -5 3 8 -1 19 -9 25 -9 6 -17 19 -19 28 -3
13 -8 15 -19 8z"/>
<path d="M2139 301 c-6 -23 -3 -61 3 -61 4 0 8 9 8 19 0 22 14 34 44 38 35 6
28 11 -13 10 -23 -1 -42 -3 -42 -6z"/>
<path d="M1489 295 c-1 -3 -3 -9 -4 -15 -1 -5 -3 -16 -4 -22 -1 -9 -4 -8 -11
2 -7 11 -10 11 -10 2 0 -7 -4 -11 -9 -8 -4 3 -6 -6 -3 -21 3 -18 1 -24 -7 -19
-6 4 -11 3 -11 -3 0 -5 5 -13 10 -16 6 -3 10 -2 10 4 0 20 32 42 53 35 16 -5
19 -3 13 12 -4 10 -2 21 5 25 8 5 5 11 -10 18 -11 7 -22 9 -22 6z"/>
<path d="M2538 288 c-3 -7 -4 -25 -4 -41 1 -19 -2 -26 -12 -22 -7 3 -22 5 -33
5 -10 0 -19 5 -19 11 0 6 7 8 16 5 8 -3 12 -2 9 4 -10 16 -45 12 -45 -5 0 -16
39 -36 52 -28 4 2 5 -3 2 -11 -4 -11 0 -14 15 -11 12 2 21 -1 21 -7 0 -17 11
-2 14 19 2 10 -2 21 -8 26 -7 5 -5 12 8 22 10 7 16 20 13 27 -4 10 -6 10 -6 1
-1 -7 -5 -13 -11 -13 -5 0 -7 7 -4 15 4 8 4 15 1 15 -3 0 -7 -6 -9 -12z"/>
<path d="M2780 285 c-7 -8 -19 -15 -26 -15 -8 0 -14 -4 -14 -10 0 -5 9 -10 20
-10 11 0 20 -4 20 -10 0 -5 -7 -7 -15 -4 -11 5 -15 -1 -15 -17 0 -14 3 -19 8
-13 4 6 19 13 35 16 20 4 27 1 27 -10 0 -8 3 -13 6 -9 4 3 23 -2 43 -12 20
-10 42 -16 49 -14 6 3 12 0 12 -6 0 -6 10 -11 22 -11 20 0 21 -1 3 -20 -10
-11 -13 -20 -7 -20 7 0 12 5 12 11 0 6 9 9 20 6 24 -6 27 8 4 17 -14 5 -14 9
-3 22 11 13 10 18 -5 26 -10 6 -25 19 -34 29 -12 14 -18 15 -24 6 -5 -8 -8 -7
-8 4 0 22 -24 31 -53 20 -14 -5 -30 -5 -40 0 -11 7 -17 6 -17 -1 0 -6 -4 -9
-10 -5 -5 3 -7 12 -4 20 4 8 11 12 17 8 6 -3 7 -1 3 5 -9 15 -11 15 -26 -3z"/>
<path d="M22 267 c-12 -13 -22 -31 -22 -40 0 -21 29 -22 36 -2 4 8 14 15 23
15 12 0 13 -2 3 -9 -11 -6 -9 -9 6 -13 16 -4 22 0 27 19 3 14 4 28 0 31 -3 3
-5 0 -5 -6 0 -9 -5 -9 -19 0 -11 7 -17 16 -15 20 11 18 -14 7 -34 -15z"/>
<path d="M1734 259 c-12 -24 -13 -34 -4 -43 8 -8 10 -7 5 7 -8 19 10 24 18 5
3 -7 6 -3 6 9 1 12 4 28 7 37 11 29 -15 16 -32 -15z"/>
<path d="M1190 271 c0 -6 -8 -8 -18 -6 -28 5 -22 -23 6 -30 16 -4 22 -11 18
-20 -3 -8 -1 -15 4 -15 13 0 13 27 0 35 -6 4 -8 15 -5 26 4 10 4 19 1 19 -3 0
-6 -4 -6 -9z"/>
<path d="M2199 260 c-2 -14 -11 -25 -19 -26 -35 -2 -40 -5 -40 -24 0 -14 7
-20 21 -20 16 0 20 5 16 20 -3 11 -2 18 2 16 15 -10 33 12 29 35 l-4 24 -5
-25z"/>
<path d="M2223 247 c-13 -21 -23 -42 -23 -46 0 -15 50 1 64 20 7 10 16 16 19
12 4 -3 7 2 7 12 0 15 -3 16 -12 7 -18 -18 -26 -15 -30 11 -3 20 -5 18 -25
-16z"/>
<path d="M2105 247 c-4 -17 -3 -33 2 -38 14 -14 21 10 13 41 l-7 25 -8 -28z"/>
<path d="M112 228 c-7 -26 -5 -34 7 -40 14 -6 14 -7 -1 -7 -20 -1 -21 -3 -12
-25 10 -25 37 9 32 38 -4 18 1 27 19 35 12 6 23 15 23 21 0 14 -17 12 -23 -2
-3 -10 -7 -10 -20 0 -14 12 -17 9 -25 -20z"/>
<path d="M825 245 c-4 -11 -11 -30 -16 -42 -11 -28 -5 -29 21 -3 15 15 17 25
11 42 -9 22 -9 22 -16 3z"/>
<path d="M191 243 c4 -27 -2 -42 -16 -37 -11 5 -14 1 -12 -15 2 -11 7 -24 12
-28 4 -5 5 -3 2 3 -8 13 16 37 26 27 14 -13 6 -32 -15 -39 -22 -7 -21 -8 9
-21 39 -16 49 -14 45 9 -2 10 10 31 27 47 24 24 27 30 14 35 -14 6 -42 -18
-43 -36 0 -15 -19 -8 -29 11 -9 16 -7 18 14 15 17 -1 25 3 25 13 0 13 -3 13
-15 3 -12 -10 -16 -9 -21 4 -6 16 -25 23 -23 9z"/>
<path d="M1367 236 c-10 -8 -15 -20 -11 -30 5 -13 10 -14 20 -5 7 6 18 8 24 4
6 -4 10 5 10 21 l0 26 -20 -23 c-10 -13 -19 -19 -20 -13 0 5 5 15 12 22 16 16
7 15 -15 -2z"/>
<path d="M2057 228 c-21 -23 -17 -33 10 -24 10 3 19 15 19 26 0 24 -6 24 -29
-2z"/>
<path d="M352 210 c-8 -17 -18 -27 -24 -24 -7 4 -8 2 -4 -4 4 -7 2 -12 -4 -12
-7 0 -8 -6 -1 -18 6 -10 7 -28 4 -40 -4 -16 -1 -22 10 -22 8 0 22 -3 31 -6 12
-5 16 0 16 21 0 15 -4 24 -10 20 -5 -3 -10 -1 -10 5 0 6 -4 8 -10 5 -5 -3 -10
-4 -10 -2 0 11 52 37 61 31 8 -4 7 -9 -2 -15 -7 -4 -11 -11 -7 -14 9 -9 48 17
48 32 0 17 15 16 29 -1 9 -11 7 -15 -10 -19 -17 -5 -20 -11 -15 -29 4 -13 8
-28 8 -35 1 -6 8 -9 15 -6 8 3 12 12 9 20 -3 7 1 16 9 19 8 4 12 11 8 18 -4 6
5 3 19 -6 15 -10 29 -14 33 -9 3 5 -1 12 -7 14 -8 4 -7 6 3 6 9 1 19 8 23 16
3 8 13 15 22 15 13 0 14 3 4 15 -10 12 -10 15 4 15 9 0 16 5 16 10 0 6 5 10
10 10 5 0 9 -5 7 -11 -1 -6 4 -14 11 -16 11 -4 12 -1 3 16 -13 23 -26 27 -37
10 -4 -8 -9 -7 -15 2 -6 10 -12 9 -28 -6 -12 -10 -24 -15 -28 -12 -3 4 0 7 7
7 10 0 11 3 3 11 -8 8 -19 3 -41 -19 -19 -19 -33 -27 -39 -21 -5 5 -20 11 -32
14 -17 3 -21 0 -17 -10 3 -9 0 -12 -9 -9 -7 3 -25 -2 -39 -11 -29 -19 -36 -4
-11 21 8 9 15 24 15 35 0 26 -3 24 -18 -11z m213 -30 c10 -16 -23 -32 -43 -21
-11 6 -22 7 -26 4 -3 -3 -6 -2 -6 3 0 27 60 38 75 14z"/>
<path d="M380 229 c0 -10 42 -30 48 -24 2 2 0 9 -5 17 -9 15 -43 20 -43 7z"/>
<path d="M1943 232 c-7 -4 -16 -19 -22 -34 -8 -20 -7 -28 4 -32 9 -3 12 0 9 8
-6 16 21 40 36 31 5 -3 10 -13 10 -22 0 -12 7 -14 35 -10 19 3 35 2 35 -2 0
-5 11 -8 25 -8 25 0 36 16 13 19 -7 0 -17 2 -23 3 -5 2 -18 3 -29 4 -14 1 -17
7 -14 25 3 16 1 23 -7 20 -7 -3 -10 -16 -7 -31 l5 -26 -30 31 c-16 17 -34 28
-40 24z"/>
<path d="M447 224 c-23 -23 12 -37 38 -17 14 11 15 14 4 10 -9 -3 -21 -1 -26
4 -5 5 -12 6 -16 3z"/>
<path d="M1046 215 c7 -18 20 -19 28 -2 3 6 3 0 0 -14 -3 -15 -1 -30 5 -33 6
-4 11 -2 11 5 0 6 8 9 19 6 10 -2 25 -1 32 4 10 6 10 9 2 9 -7 0 -10 6 -7 14
3 9 -2 13 -18 12 -13 -1 -27 0 -33 3 -24 13 -44 10 -39 -4z"/>
<path d="M1773 215 c2 -5 10 -10 18 -10 8 -1 13 -6 12 -13 -2 -7 5 -12 15 -12
14 0 15 -2 2 -10 -9 -6 -10 -10 -3 -10 21 0 23 17 3 37 -10 12 -17 23 -15 25
2 2 -5 4 -16 4 -10 0 -18 -5 -16 -11z"/>
<path d="M1830 214 c0 -18 23 -30 28 -16 2 7 8 9 14 6 6 -4 9 -1 6 6 -5 17
-48 21 -48 4z"/>
<path d="M2353 223 c-15 -5 -17 -41 -4 -62 5 -8 16 -11 25 -8 20 8 21 -16 2
-33 -8 -6 -12 -18 -9 -26 3 -8 0 -14 -6 -14 -15 0 -51 37 -43 44 3 3 1 6 -5 6
-6 0 -13 -9 -16 -20 -4 -14 0 -20 11 -20 15 -1 16 -2 1 -13 -13 -10 -14 -17
-4 -41 11 -26 12 -27 17 -8 3 12 1 23 -6 26 -6 2 -3 5 7 5 10 1 20 -6 23 -14
4 -8 13 -15 22 -15 12 0 12 4 -4 22 -10 12 -14 18 -7 15 11 -7 30 28 25 46 -3
13 15 8 28 -8 16 -19 30 -19 30 0 0 8 -9 15 -20 15 -13 0 -20 7 -20 20 0 11 7
20 15 20 8 0 15 4 15 9 0 5 -16 7 -35 4 -27 -3 -35 -1 -35 10 0 9 6 17 13 20
8 3 9 8 2 15 -5 5 -16 7 -22 5z"/>
<path d="M1477 211 c2 -2 -1 -9 -6 -15 -4 -6 -11 -23 -14 -37 -5 -19 -3 -26 9
-26 11 0 13 8 10 31 -4 29 -4 30 10 12 10 -15 14 -16 14 -5 0 8 -6 22 -12 30
-7 8 -12 12 -11 10z"/>
<path d="M673 190 c1 -10 5 -16 9 -14 4 3 8 -5 8 -18 1 -20 2 -21 10 -6 11 18
1 52 -17 55 -6 2 -11 -6 -10 -17z"/>
<path d="M853 196 c-13 -6 -23 -18 -23 -26 0 -13 1 -13 10 0 6 10 10 11 10 3
0 -7 5 -13 11 -13 6 0 9 6 6 14 -3 8 -1 17 6 19 7 2 10 6 7 9 -3 2 -15 -1 -27
-6z"/>
<path d="M986 184 c-10 -14 -15 -33 -13 -42 3 -11 5 -8 6 8 1 23 3 23 12 7 6
-11 12 -26 13 -35 2 -10 7 -16 12 -14 5 2 7 12 6 24 -3 17 0 20 17 15 16 -4
21 0 21 13 0 10 -7 21 -16 24 -11 4 -15 2 -11 -8 4 -10 0 -12 -15 -8 -13 3
-18 11 -15 23 7 26 2 24 -17 -7z"/>
<path d="M1320 194 c0 -8 -4 -13 -9 -10 -5 4 -7 -3 -4 -14 4 -16 0 -20 -18
-20 -34 0 -56 -15 -35 -23 9 -4 16 -2 16 3 0 6 7 10 15 10 22 0 18 -34 -5 -55
-11 -10 -18 -20 -15 -23 3 -3 0 -11 -6 -19 -9 -10 -8 -13 0 -13 7 0 9 -4 6
-10 -3 -5 4 -10 15 -10 13 0 24 8 27 20 4 15 9 17 24 10 24 -13 73 29 63 55
-6 15 -9 15 -20 -6 -7 -13 -10 -27 -8 -30 2 -4 -3 -9 -11 -13 -10 -3 -15 1
-15 13 0 19 -14 22 -38 8 -7 -5 -9 -14 -5 -20 4 -8 1 -7 -9 1 -15 12 -15 15 3
33 17 17 23 32 20 51 0 4 6 5 14 2 8 -4 13 -10 10 -14 -3 -5 3 -7 12 -5 10 2
21 4 25 4 18 2 -6 28 -25 27 -13 -1 -23 6 -25 17 -2 10 3 17 12 17 9 0 16 7
16 15 0 8 -7 15 -15 15 -8 0 -15 -7 -15 -16z"/>
<path d="M726 178 c4 -19 2 -28 -6 -28 -10 0 -10 -3 0 -15 6 -8 9 -19 5 -25
-5 -8 -11 -6 -19 5 -10 14 -13 14 -31 0 -14 -12 -15 -15 -4 -12 9 3 16 -1 16
-9 0 -8 -5 -14 -11 -14 -15 0 16 -20 31 -20 7 0 10 6 7 13 -3 8 4 13 17 14 20
2 20 1 -4 -21 l-25 -23 27 0 c39 0 91 -11 104 -21 18 -13 57 -12 54 1 -1 7 4
11 11 9 10 -2 10 2 2 18 -6 11 -15 20 -21 20 -6 0 -7 -5 -3 -12 4 -7 3 -8 -4
-4 -7 4 -12 0 -13 -11 0 -16 -1 -16 -9 2 -5 12 -9 14 -9 6 -1 -8 -4 -12 -7 -8
-3 3 4 20 16 37 24 34 23 44 -4 34 -9 -4 -15 -12 -12 -20 3 -8 -2 -11 -15 -9
-21 4 -24 -5 -9 -23 6 -6 7 -10 4 -7 -4 3 -13 0 -20 -6 -10 -8 -12 -6 -9 12 4
17 2 20 -7 11 -16 -16 -29 -15 -22 2 3 8 1 17 -5 20 -6 4 -2 15 10 27 11 11
18 24 14 27 -4 4 -11 -1 -16 -11 -13 -22 -29 -13 -22 12 3 11 0 28 -6 38 -10
15 -10 14 -5 -9z"/>
<path d="M1234 193 c10 -18 -13 -26 -32 -11 -15 12 -16 11 -3 -4 11 -15 11
-19 -3 -24 -9 -3 -13 -10 -10 -15 3 -5 12 -2 20 6 9 8 20 12 26 9 6 -4 8 -2 4
4 -3 5 0 12 6 15 10 3 10 8 -1 18 -8 8 -11 9 -7 2z"/>
<path d="M2560 190 c0 -12 48 -25 58 -16 8 9 -18 26 -40 26 -10 0 -18 -4 -18
-10z"/>
<path d="M2700 193 c0 -15 48 -33 67 -26 12 5 14 3 8 -7 -5 -9 -4 -11 3 -6 7
4 12 13 12 20 0 15 -30 17 -30 2 0 -6 -7 -2 -15 8 -9 12 -15 15 -15 7 0 -11
-3 -11 -15 -1 -8 7 -15 8 -15 3z"/>
<path d="M273 166 c-28 -27 -28 -32 -3 -46 15 -8 25 -8 38 0 15 10 15 10 -3 6
-11 -3 -27 -1 -35 4 -9 6 -10 10 -3 10 12 0 38 38 31 45 -2 1 -13 -7 -25 -19z"/>
<path d="M1737 171 c-3 -13 -10 -20 -16 -16 -6 3 -9 0 -6 -7 6 -17 -32 -61
-45 -53 -6 4 -20 -1 -30 -10 -10 -9 -24 -14 -29 -10 -20 12 -32 -5 -20 -27 10
-18 9 -20 -6 -14 -13 5 -16 2 -11 -10 5 -12 2 -15 -10 -10 -8 3 -20 6 -25 6
-4 0 -7 6 -5 13 1 6 1 9 -1 4 -3 -4 -9 -5 -14 -1 -5 3 -9 1 -9 -4 0 -19 27
-32 63 -30 32 1 38 5 47 34 14 41 38 63 49 45 6 -10 13 -8 29 9 12 13 25 19
33 14 9 -5 10 -1 6 16 -3 13 -1 30 4 37 6 7 9 18 7 25 -3 7 -7 2 -11 -11z"/>
<path d="M2290 164 c-11 -19 -19 -24 -36 -20 -27 7 -37 -4 -23 -24 5 -8 9 -10
9 -5 0 6 4 4 9 -4 10 -15 -5 -60 -24 -73 -6 -5 -6 -8 0 -8 6 0 3 -5 -5 -10
-13 -8 -12 -10 3 -10 9 0 17 7 17 15 0 13 12 19 32 16 4 0 3 10 -2 23 -6 16
-5 28 3 36 9 10 9 11 0 6 -7 -4 -13 -2 -13 3 0 14 31 46 53 54 20 8 23 27 4
27 -8 0 -20 -12 -27 -26z"/>
<path d="M2630 171 c-7 -13 -7 -22 0 -26 5 -3 10 -2 10 4 0 6 6 8 14 5 8 -3
17 0 21 5 3 6 11 9 16 6 5 -3 6 1 2 11 -5 14 -7 15 -15 1 -5 -10 -15 -14 -25
-10 -15 6 -14 7 3 14 16 6 16 8 2 8 -10 1 -22 -8 -28 -18z"/>
<path d="M30 158 c0 -9 9 -20 20 -23 11 -3 20 -11 20 -17 0 -6 -6 -6 -15 2
-14 12 -17 8 -14 -16 0 -4 -5 -11 -13 -16 -9 -7 -7 -8 8 -3 12 3 33 1 46 -4
17 -7 29 -6 37 2 8 8 11 7 11 -6 0 -9 -6 -17 -12 -18 -16 -1 25 -14 75 -23 33
-6 37 -5 26 7 -7 7 -24 12 -38 9 -21 -3 -23 -1 -11 7 13 10 13 13 -2 25 -22
16 -23 30 -3 22 20 -7 19 -4 -4 23 -20 22 -36 15 -25 -12 3 -10 -3 -16 -20
-19 -21 -4 -27 0 -37 26 -7 17 -15 35 -17 40 -3 5 0 6 7 2 6 -4 11 -3 11 2 0
6 -11 9 -25 8 -16 0 -25 -7 -25 -18z"/>
<path d="M625 170 c3 -5 1 -10 -5 -10 -6 0 -8 -5 -5 -10 4 -7 13 -7 26 0 25
14 24 30 -2 30 -11 0 -17 -4 -14 -10z"/>
<path d="M2163 158 c-3 -7 -1 -8 5 -4 7 4 12 1 12 -7 0 -9 -9 -13 -26 -11 -20
2 -36 -7 -65 -37 -23 -24 -39 -34 -42 -26 -3 9 -8 9 -18 -2 -10 -10 -10 -12
-1 -7 9 6 11 1 8 -17 -4 -23 -2 -24 30 -17 19 4 50 4 69 0 32 -7 36 -6 41 17
11 42 -14 41 -29 -1 -2 -5 -8 -7 -14 -5 -6 3 -4 20 8 48 15 33 22 41 32 33 17
-14 40 1 35 23 -3 20 -34 29 -45 13z m-43 -58 c-13 -9 -13 -10 0 -10 12 -1 11
-3 -3 -11 -9 -6 -15 -14 -13 -18 3 -4 -1 -8 -9 -8 -8 0 -15 5 -15 10 0 14 31
47 44 47 6 0 4 -5 -4 -10z"/>
<path d="M2466 163 c-12 -12 -6 -22 9 -17 17 7 19 -4 5 -26 -9 -13 -11 -13
-20 0 -8 12 -10 10 -11 -10 -1 -14 0 -29 1 -35 1 -5 3 -16 3 -22 1 -23 70 -16
85 8 8 12 9 18 3 14 -6 -3 -11 -1 -11 4 0 19 -17 12 -28 -12 -9 -19 -11 -19
-11 -3 -1 12 -6 16 -15 13 -10 -4 -13 -1 -9 8 3 8 9 13 13 10 5 -3 11 -1 15 5
4 6 11 8 16 5 5 -4 9 -1 9 4 0 6 -8 11 -17 11 -11 0 -14 3 -7 8 6 4 9 14 5 22
-7 16 -25 23 -35 13z"/>
<path d="M580 147 c0 -7 -9 -19 -20 -27 -26 -19 -26 -40 1 -40 16 0 20 -5 16
-20 -3 -11 -2 -20 3 -20 4 0 10 -9 13 -20 4 -14 10 -18 23 -13 16 6 16 7 -2
14 -17 7 -17 8 -1 8 9 1 17 6 17 13 0 6 8 20 18 31 10 13 11 17 3 12 -11 -6
-13 -4 -8 8 5 12 1 17 -13 17 -10 0 -22 -5 -26 -12 -4 -6 -3 -8 3 -5 12 7 22
-21 16 -40 -3 -7 -11 -13 -19 -13 -14 0 -18 30 -14 93 1 15 -1 27 -4 27 -3 0
-6 -6 -6 -13z"/>
<path d="M1386 151 c-10 -16 12 -41 36 -41 22 0 20 22 -3 28 -11 3 -11 2 1 -7
11 -8 11 -11 2 -11 -7 0 -16 10 -21 22 -5 15 -10 18 -15 9z"/>
<path d="M1517 140 c-3 -14 -1 -18 6 -13 18 11 37 12 37 2 0 -5 -5 -9 -12 -9
-6 0 -8 -3 -5 -6 4 -4 13 -1 21 6 13 10 13 14 1 26 -20 20 -42 17 -48 -6z"/>
<path d="M2550 145 c-7 -8 -9 -15 -5 -15 4 0 2 -7 -5 -15 -7 -9 -10 -18 -8
-21 9 -9 38 27 38 47 0 23 -4 24 -20 4z"/>
<path d="M801 124 c-14 -13 -22 -27 -18 -30 4 -4 7 -2 7 5 0 7 6 11 13 8 7 -3
19 3 25 14 17 27 0 30 -27 3z"/>
<path d="M1750 120 c0 -21 9 -39 26 -55 27 -25 50 -24 40 1 -3 8 0 13 6 11 6
-1 14 10 18 24 7 23 5 26 -11 22 -11 -3 -22 -16 -25 -29 -3 -13 -12 -24 -20
-24 -16 0 -19 26 -4 35 6 3 10 12 10 18 0 7 -4 6 -10 -3 -8 -13 -10 -13 -10 2
0 9 -4 20 -10 23 -6 4 -10 -7 -10 -25z"/>
<path d="M1890 142 c-22 -7 -39 -32 -33 -48 4 -11 9 -12 19 -3 8 6 14 17 14
24 0 8 6 15 13 18 17 6 5 15 -13 9z"/>
<path d="M2715 124 c-16 -14 -29 -30 -27 -35 1 -5 -4 -9 -10 -9 -9 0 -8 -4 2
-10 10 -6 11 -10 3 -10 -7 0 -13 -5 -13 -11 0 -5 5 -7 10 -4 6 3 11 -4 11 -17
1 -17 3 -18 6 -5 2 9 9 15 14 11 5 -3 8 0 7 7 -2 6 3 14 11 17 9 3 12 0 9 -10
-4 -8 -1 -15 5 -15 7 0 12 16 12 38 0 20 -2 37 -5 37 -20 -1 -30 3 -25 12 3 5
12 7 20 3 9 -3 15 1 15 11 0 22 -10 20 -45 -10z"/>
<path d="M2806 134 c-5 -14 -9 -14 -24 -3 -15 13 -16 12 -4 -2 10 -14 10 -19
-2 -31 -8 -9 -12 -25 -9 -42 4 -18 1 -31 -8 -37 -11 -7 -10 -9 4 -9 9 0 17 7
17 15 0 8 6 15 13 15 8 0 7 4 -3 10 -13 8 -12 10 4 10 10 0 27 -9 36 -20 16
-18 18 -19 24 -4 4 9 4 19 1 22 -3 3 -5 -1 -5 -9 0 -12 -2 -11 -10 1 -6 10 -4
22 6 37 13 21 13 23 -4 23 -26 0 -34 11 -21 27 7 8 8 13 1 13 -5 0 -13 -7 -16
-16z"/>
<path d="M1960 130 c0 -5 -3 -9 -7 -9 -21 3 -33 -2 -33 -16 0 -8 5 -15 10 -15
6 0 10 5 10 10 0 6 5 10 11 10 6 0 17 7 25 15 14 13 14 15 0 15 -9 0 -16 -4
-16 -10z"/>
<path d="M2585 130 c-3 -5 -1 -11 4 -15 6 -3 1 -15 -11 -27 -21 -21 -21 -22
-3 -28 17 -6 16 -8 -8 -13 -14 -4 -31 -16 -37 -26 -8 -17 -6 -19 20 -17 40 3
51 16 14 17 l-29 0 25 10 c14 6 39 8 55 5 l30 -6 -25 19 c-18 14 -21 23 -14
33 22 27 23 46 3 51 -10 3 -21 1 -24 -3z"/>
<path d="M2885 130 c3 -5 1 -10 -5 -10 -8 0 -9 -7 -5 -17 16 -37 12 -78 -9
-90 -18 -10 -18 -12 -4 -13 10 0 29 18 43 41 36 56 40 69 21 69 -10 0 -13 -6
-10 -17 5 -15 4 -16 -5 -3 -6 8 -11 23 -11 33 0 9 -5 17 -11 17 -5 0 -7 -4 -4
-10z"/>
<path d="M1044 103 c-11 -16 -22 -39 -25 -53 l-6 -25 -12 29 c-10 26 -24 29
-27 5 -1 -5 -2 -14 -3 -19 -1 -7 -6 -6 -15 2 -7 7 -11 19 -8 27 3 9 0 12 -9 9
-7 -2 -14 -18 -15 -35 -1 -23 2 -30 12 -26 8 3 14 -1 14 -8 0 -11 2 -11 9 0 5
8 23 14 40 14 29 0 37 11 32 41 -2 12 20 37 28 32 4 -3 8 4 8 15 2 25 -1 24
-23 -8z"/>
<path d="M1085 101 c-3 -10 -4 -24 -3 -31 2 -7 -3 -15 -11 -18 -8 -2 -11 0 -7
6 3 6 3 13 -2 16 -4 2 -9 -6 -10 -19 -2 -22 2 -24 36 -23 20 0 45 7 54 15 9 8
21 12 26 9 10 -6 43 30 35 38 -13 13 -35 6 -29 -9 3 -9 0 -15 -10 -15 -10 0
-14 6 -11 15 4 8 2 17 -3 20 -6 4 -10 -1 -10 -10 0 -9 -4 -14 -9 -10 -5 3 -12
1 -16 -5 -12 -20 -27 -10 -21 15 7 29 0 34 -9 6z"/>
<path d="M1965 83 c-14 -28 -20 -33 -22 -20 -3 9 -9 17 -14 17 -6 0 -6 -7 0
-19 6 -10 7 -21 3 -25 -3 -4 2 -4 12 0 16 6 17 4 11 -17 -6 -20 -5 -22 6 -12
7 7 23 13 35 13 18 0 20 4 16 27 -4 18 -7 22 -10 11 -2 -9 -10 -19 -19 -22
-12 -5 -13 -3 -6 6 9 13 18 78 11 78 -3 0 -13 -17 -23 -37z"/>
<path d="M190 102 c0 -5 25 -16 55 -26 54 -17 67 -29 43 -39 -8 -4 -7 -6 3 -6
10 -1 19 9 22 27 7 34 -7 50 -31 35 -14 -8 -24 -7 -43 3 -27 15 -49 18 -49 6z"/>
<path d="M390 90 c-16 -29 -12 -36 25 -47 29 -9 35 -9 35 4 0 8 -4 11 -10 8
-6 -3 -7 1 -4 9 4 12 0 16 -17 17 -22 0 -22 1 -5 8 17 7 18 8 3 14 -11 4 -20
-1 -27 -13z"/>
<path d="M490 98 c0 -10 7 -18 15 -18 8 0 15 -6 15 -14 0 -8 7 -16 15 -20 8
-3 15 -1 15 4 0 6 -4 10 -10 10 -5 0 -10 9 -10 21 0 12 -4 18 -11 13 -6 -3
-15 0 -20 7 -7 11 -9 10 -9 -3z"/>
<path d="M878 99 c-25 -14 -22 -24 6 -25 18 -1 22 2 19 17 -3 11 -6 19 -7 19
0 0 -9 -5 -18 -11z"/>
<path d="M1210 69 c-17 -19 -35 -29 -44 -26 -9 4 -18 2 -22 -4 -10 -16 -1 -18
38 -10 30 7 38 6 40 -6 2 -9 8 5 14 31 6 25 9 46 7 46 -1 0 -16 -14 -33 -31z"/>
<path d="M1885 70 c-3 -5 -3 -10 2 -10 4 0 2 -4 -6 -9 -11 -7 -9 -10 8 -16 11
-3 21 -11 21 -17 0 -5 -6 -8 -13 -5 -8 3 -20 1 -28 -4 -10 -7 -5 -9 16 -7 23
2 29 7 27 23 -1 11 -3 28 -4 38 -2 19 -13 22 -23 7z"/>
<path d="M2947 67 c3 -4 8 -6 11 -3 3 3 11 1 19 -5 11 -10 10 -14 -3 -24 -18
-13 -11 -36 9 -34 9 0 9 2 0 6 -7 2 -13 9 -13 14 0 5 6 8 13 6 7 -1 13 10 15
26 3 25 1 27 -27 25 -16 -1 -27 -6 -24 -11z"/>
<path d="M2410 50 c13 -8 12 -10 -2 -10 -10 0 -18 -4 -18 -9 0 -10 69 -25 78
-17 3 3 -5 6 -17 6 -18 0 -21 4 -16 20 5 16 2 20 -17 20 -18 0 -20 -2 -8 -10z"/>
<path d="M484 34 c3 -9 6 -20 6 -25 0 -5 7 -9 16 -9 8 0 12 5 9 10 -3 5 1 10
9 10 9 0 16 5 16 11 0 6 -9 8 -21 4 -15 -5 -19 -4 -15 4 4 6 0 11 -9 11 -12 0
-15 -5 -11 -16z"/>
<path d="M1470 35 c0 -16 -15 -21 -23 -7 -2 4 -2 2 -1 -5 2 -6 -2 -14 -9 -16
-7 -2 0 -4 15 -4 20 0 27 5 31 23 2 13 0 24 -4 24 -5 0 -9 -7 -9 -15z"/>
<path d="M1715 39 c-16 -4 -24 -7 -16 -8 11 -1 11 -4 1 -16 -20 -24 6 -19 31
6 25 25 23 27 -16 18z"/>
</g>
</svg>
